<svg class="main-svg" xmlns="http://www.w3.org/2000/svg" xmlns:xlink="http://www.w3.org/1999/xlink" width="800" height="560" style="" viewBox="0 0 800 560"><rect x="0" y="0" width="800" height="560" style="fill: rgb(255, 255, 255); fill-opacity: 1;"/><defs id="defs-5c9261"><g class="clips"><clipPath id="clip5c9261xyplot" class="plotclip"><rect width="625" height="380"/></clipPath><clipPath id="clip5c9261xyz2plot" class="plotclip"><rect width="625" height="380"/></clipPath><clipPath class="axesclip" id="clip5c9261x"><rect x="95" y="0" width="625" height="560"/></clipPath><clipPath class="axesclip" id="clip5c9261y"><rect x="0" y="100" width="800" height="380"/></clipPath><clipPath class="axesclip" id="clip5c9261xy"><rect x="95" y="100" width="625" height="380"/></clipPath></g><g class="gradients"/><g class="patterns"/></defs><g class="bglayer"/><g class="layer-below"><g class="imagelayer"/><g class="shapelayer"/></g><g class="cartesianlayer"><g class="subplot xy"><g class="layer-subplot"><g class="shapelayer"/><g class="imagelayer"/></g><g class="minor-gridlayer"><g class="x"/><g class="y"/></g><g class="gridlayer"><g class="x"><path class="xgrid crisp" transform="translate(199.17000000000002,0)" d="M0,100v380" style="stroke: rgb(0, 0, 0); stroke-opacity: 0.1; stroke-width: 1px;"/><path class="xgrid crisp" transform="translate(303.33000000000004,0)" d="M0,100v380" style="stroke: rgb(0, 0, 0); stroke-opacity: 0.1; stroke-width: 1px;"/><path class="xgrid crisp" transform="translate(407.5,0)" d="M0,100v380" style="stroke: rgb(0, 0, 0); stroke-opacity: 0.1; stroke-width: 1px;"/><path class="xgrid crisp" transform="translate(511.67,0)" d="M0,100v380" style="stroke: rgb(0, 0, 0); stroke-opacity: 0.1; stroke-width: 1px;"/><path class="xgrid crisp" transform="translate(615.83,0)" d="M0,100v380" style="stroke: rgb(0, 0, 0); stroke-opacity: 0.1; stroke-width: 1px;"/></g><g class="y"><path class="ygrid crisp" transform="translate(0,347)" d="M95,0h625" style="stroke: rgb(0, 0, 0); stroke-opacity: 0.1; stroke-width: 1px;"/><path class="ygrid crisp" transform="translate(0,461)" d="M95,0h625" style="stroke: rgb(0, 0, 0); stroke-opacity: 0.1; stroke-width: 1px;"/></g></g><g class="zerolinelayer"/><g class="layer-between"><g class="shapelayer"/><g class="imagelayer"/></g><path class="xlines-below"/><path class="ylines-below"/><g class="overlines-below"/><g class="xaxislayer-below"/><g class="yaxislayer-below"/><g class="overaxes-below"/><g class="overplot"><g class="xy" transform="translate(95,100)" clip-path="url(#clip5c9261xyplot)"><g class="scatterlayer mlayer"><g class="trace scatter traceb0bd44" style="stroke-miterlimit: 2;"><g class="fills"><g><path class="js-fill" d="M-27.65,243.17L18.6,241.33L19.75,241.23L40.56,238.52L41.72,238.32L60.21,234.42L61.37,234.12L75.24,229.82L76.4,229.39L89.11,223.68L90.27,223.06L100.67,216.61L101.83,215.79L112.23,207.43L113.39,206.39L124.95,194.86L126.11,193.6L141.14,175.78L142.29,174.32L190.84,113.14L192,111.82L215.12,86.59L216.28,85.38L237.09,64.5L238.24,63.41L253.27,50.17L254.43,49.24L267.14,40.11L268.3,39.38L281.02,32.47L282.17,31.93L294.89,26.93L296.04,26.54L312.23,22.01L313.38,21.74L328.41,19.25L329.57,19.16L338.82,19.23L339.97,19.35L348.07,21.21L349.22,21.63L356.16,25.09L357.31,25.83L364.25,31.36L365.41,32.47L373.5,41.69L374.65,43.21L382.75,55.16L383.9,57.03L395.46,77.34L396.62,79.48L416.27,114.68L417.43,116.55L426.68,130.05L427.83,131.54L435.92,140.79L437.08,141.93L445.17,148.88L446.33,149.74L456.73,156.26L457.89,156.89L490.26,174.7L491.41,175.47L507.6,187.2L508.75,188.09L543.43,214.17L544.59,214.96L549.21,218.04L549.21,247L-27.65,247Z" style="fill: rgb(255, 255, 217); fill-opacity: 0.6; stroke-width: 0;"/></g></g><g class="errorbars"/><g class="lines"><path class="js-line" d="M-27.65,247L549.21,247" style="vector-effect: none; fill: none; stroke: rgb(0, 0, 0); stroke-opacity: 0; stroke-width: 0px; opacity: 1;"/></g><g class="points"/><g class="text"/></g><g class="trace scatter trace8195ac" style="stroke-miterlimit: 2;"><g class="fills"/><g class="errorbars"/><g class="lines"><path class="js-line" d="M-27.65,243.17L18.6,241.33L19.75,241.23L40.56,238.52L41.72,238.32L60.21,234.42L61.37,234.12L75.24,229.82L76.4,229.39L89.11,223.68L90.27,223.06L100.67,216.61L101.83,215.79L112.23,207.43L113.39,206.39L124.95,194.86L126.11,193.6L141.14,175.78L142.29,174.32L190.84,113.14L192,111.82L215.12,86.59L216.28,85.38L237.09,64.5L238.24,63.41L253.27,50.17L254.43,49.24L267.14,40.11L268.3,39.38L281.02,32.47L282.17,31.93L294.89,26.93L296.04,26.54L312.23,22.01L313.38,21.74L328.41,19.25L329.57,19.16L338.82,19.23L339.97,19.35L348.07,21.21L349.22,21.63L356.16,25.09L357.31,25.83L364.25,31.36L365.41,32.47L373.5,41.69L374.65,43.21L382.75,55.16L383.9,57.03L395.46,77.34L396.62,79.48L416.27,114.68L417.43,116.55L426.68,130.05L427.83,131.54L435.92,140.79L437.08,141.93L445.17,148.88L446.33,149.74L456.73,156.26L457.89,156.89L490.26,174.7L491.41,175.47L507.6,187.2L508.75,188.09L543.43,214.17L544.59,214.96L549.21,218.04" style="vector-effect: none; fill: none; stroke: rgb(0, 0, 0); stroke-opacity: 1; stroke-width: 1.5px; opacity: 1;"/></g><g class="points"/><g class="text"/></g></g></g></g><path class="xlines-above crisp" d="M0,0" style="fill: none;"/><path class="ylines-above crisp" d="M0,0" style="fill: none;"/><g class="overlines-above"/><g class="xaxislayer-above"><g class="xtick"><text text-anchor="middle" x="0" y="497" transform="translate(95,0)" style="font-family: 'Open Sans', verdana, arial, sans-serif; font-size: 16px; fill: rgb(42, 63, 95); fill-opacity: 1; white-space: pre; opacity: 1;">−3</text></g><g class="xtick"><text text-anchor="middle" x="0" y="497" style="font-family: 'Open Sans', verdana, arial, sans-serif; font-size: 16px; fill: rgb(42, 63, 95); fill-opacity: 1; white-space: pre; opacity: 1;" transform="translate(199.17000000000002,0)">−2</text></g><g class="xtick"><text text-anchor="middle" x="0" y="497" style="font-family: 'Open Sans', verdana, arial, sans-serif; font-size: 16px; fill: rgb(42, 63, 95); fill-opacity: 1; white-space: pre; opacity: 1;" transform="translate(303.33000000000004,0)">−1</text></g><g class="xtick"><text text-anchor="middle" x="0" y="497" style="font-family: 'Open Sans', verdana, arial, sans-serif; font-size: 16px; fill: rgb(42, 63, 95); fill-opacity: 1; white-space: pre; opacity: 1;" transform="translate(407.5,0)">0</text></g><g class="xtick"><text text-anchor="middle" x="0" y="497" style="font-family: 'Open Sans', verdana, arial, sans-serif; font-size: 16px; fill: rgb(42, 63, 95); fill-opacity: 1; white-space: pre; opacity: 1;" transform="translate(511.67,0)">1</text></g><g class="xtick"><text text-anchor="middle" x="0" y="497" style="font-family: 'Open Sans', verdana, arial, sans-serif; font-size: 16px; fill: rgb(42, 63, 95); fill-opacity: 1; white-space: pre; opacity: 1;" transform="translate(615.83,0)">2</text></g><g class="xtick"><text text-anchor="middle" x="0" y="497" style="font-family: 'Open Sans', verdana, arial, sans-serif; font-size: 16px; fill: rgb(42, 63, 95); fill-opacity: 1; white-space: pre; opacity: 1;" transform="translate(720,0)">3</text></g></g><g class="yaxislayer-above"><g class="ytick"><text text-anchor="end" x="94" y="5.6" transform="translate(0,347)" style="font-family: 'Open Sans', verdana, arial, sans-serif; font-size: 16px; fill: rgb(42, 63, 95); fill-opacity: 1; white-space: pre; opacity: 1;">Applicants</text></g><g class="ytick"><text text-anchor="end" x="94" y="5.6" style="font-family: 'Open Sans', verdana, arial, sans-serif; font-size: 16px; fill: rgb(42, 63, 95); fill-opacity: 1; white-space: pre; opacity: 1;" transform="translate(0,461)">Reviewers</text></g></g><g class="overaxes-above"/></g><g class="subplot xyz2"><g class="overplot"><g class="xyz2" transform="translate(95,100)" clip-path="url(#clip5c9261xyz2plot)"><g class="scatterlayer2 mlayer"><g class="trace scatter tracef7aa32" style="stroke-miterlimit: 2;"><g class="fills"><g><path class="js-fill" d="M23.72,352.51L41.95,347.53L43.02,347.17L59.11,341L60.18,340.52L74.12,333.56L75.19,332.96L90.2,323.61L91.27,322.88L108.43,310.01L109.5,309.15L143.81,282.28L144.88,281.55L159.89,272.39L160.97,271.79L186.7,257.14L187.77,256.39L197.42,248.54L198.49,247.53L207.07,238.33L208.14,237.04L217.79,223.98L218.87,222.38L231.73,201.67L232.81,199.86L252.11,168.68L253.18,167.15L261.76,156.14L262.83,154.93L270.33,147.68L271.41,146.81L278.91,141.88L279.98,141.33L287.49,138.46L288.56,138.17L297.14,136.8L298.21,136.72L310.01,136.72L311.08,136.77L336.81,138.67L337.88,138.78L350.75,140.87L351.82,141.14L360.4,144.03L361.47,144.5L370.05,149.31L371.12,150.05L379.7,157.11L380.77,158.14L390.42,168.68L391.49,169.99L403.29,185.55L404.36,187.04L435.46,229.52L436.53,230.85L454.76,252.34L455.83,253.56L509.44,314.06L510.51,315.11L522.31,325.5L523.38,326.34L534.1,333.74L535.17,334.39L546.97,340.55L548.04,341.04L558.76,345.37L558.76,361L23.72,361Z" style="fill: rgb(8, 29, 88); fill-opacity: 0.6; stroke-width: 0;"/></g></g><g class="errorbars"/><g class="lines"><path class="js-line" d="M23.72,361L558.76,361" style="vector-effect: none; fill: none; stroke: rgb(0, 0, 0); stroke-opacity: 0; stroke-width: 0px; opacity: 1;"/></g><g class="points"/><g class="text"/></g><g class="trace scatter trace8b182f" style="stroke-miterlimit: 2;"><g class="fills"/><g class="errorbars"/><g class="lines"><path class="js-line" d="M23.72,352.51L41.95,347.53L43.02,347.17L59.11,341L60.18,340.52L74.12,333.56L75.19,332.96L90.2,323.61L91.27,322.88L108.43,310.01L109.5,309.15L143.81,282.28L144.88,281.55L159.89,272.39L160.97,271.79L186.7,257.14L187.77,256.39L197.42,248.54L198.49,247.53L207.07,238.33L208.14,237.04L217.79,223.98L218.87,222.38L231.73,201.67L232.81,199.86L252.11,168.68L253.18,167.15L261.76,156.14L262.83,154.93L270.33,147.68L271.41,146.81L278.91,141.88L279.98,141.33L287.49,138.46L288.56,138.17L297.14,136.8L298.21,136.72L310.01,136.72L311.08,136.77L336.81,138.67L337.88,138.78L350.75,140.87L351.82,141.14L360.4,144.03L361.47,144.5L370.05,149.31L371.12,150.05L379.7,157.11L380.77,158.14L390.42,168.68L391.49,169.99L403.29,185.55L404.36,187.04L435.46,229.52L436.53,230.85L454.76,252.34L455.83,253.56L509.44,314.06L510.51,315.11L522.31,325.5L523.38,326.34L534.1,333.74L535.17,334.39L546.97,340.55L548.04,341.04L558.76,345.37" style="vector-effect: none; fill: none; stroke: rgb(0, 0, 0); stroke-opacity: 1; stroke-width: 1.5px; opacity: 1;"/></g><g class="points"/><g class="text"/></g></g></g></g></g></g><g class="polarlayer"/><g class="smithlayer"/><g class="ternarylayer"/><g class="geolayer"/><g class="funnelarealayer"/><g class="pielayer"/><g class="iciclelayer"/><g class="treemaplayer"/><g class="sunburstlayer"/><g class="glimages"/><defs id="topdefs-5c9261"><g class="clips"/></defs><g class="layer-above"><g class="imagelayer"/><g class="shapelayer"/></g><g class="infolayer"><g class="g-gtitle"><text class="gtitle" x="40" y="50" text-anchor="start" dy="0em" style="opacity: 1; font-family: 'Open Sans', verdana, arial, sans-serif; font-size: 22px; fill: rgb(42, 63, 95); fill-opacity: 1; white-space: pre;">Observed vs. A-Optimal</text></g><g class="g-xtitle"><text class="xtitle" x="407.5" y="528.3" text-anchor="middle" style="opacity: 1; font-family: 'Open Sans', verdana, arial, sans-serif; font-size: 19px; fill: rgb(42, 63, 95); fill-opacity: 1; white-space: pre;">Z-Score</text></g><g class="g-ytitle"/></g></svg>