<svg class="main-svg" xmlns="http://www.w3.org/2000/svg" xmlns:xlink="http://www.w3.org/1999/xlink" width="800" height="560" style="" viewBox="0 0 800 560"><rect x="0" y="0" width="800" height="560" style="fill: rgb(255, 255, 255); fill-opacity: 1;"/><defs id="defs-ab30f2"><g class="clips"><clipPath id="clipab30f2xyplot" class="plotclip"><rect width="547" height="380"/></clipPath><clipPath id="clipab30f2xyz2plot" class="plotclip"><rect width="547" height="380"/></clipPath><clipPath id="clipab30f2xyz3plot" class="plotclip"><rect width="547" height="380"/></clipPath><clipPath id="clipab30f2xyz4plot" class="plotclip"><rect width="547" height="380"/></clipPath><clipPath id="clipab30f2xyz5plot" class="plotclip"><rect width="547" height="380"/></clipPath><clipPath id="clipab30f2xyz6plot" class="plotclip"><rect width="547" height="380"/></clipPath><clipPath class="axesclip" id="clipab30f2x"><rect x="173" y="0" width="547" height="560"/></clipPath><clipPath class="axesclip" id="clipab30f2y"><rect x="0" y="100" width="800" height="380"/></clipPath><clipPath class="axesclip" id="clipab30f2xy"><rect x="173" y="100" width="547" height="380"/></clipPath></g><g class="gradients"/><g class="patterns"/></defs><g class="bglayer"/><g class="layer-below"><g class="imagelayer"/><g class="shapelayer"/></g><g class="cartesianlayer"><g class="subplot xy"><g class="layer-subplot"><g class="shapelayer"/><g class="imagelayer"/></g><g class="minor-gridlayer"><g class="x"/><g class="y"/></g><g class="gridlayer"><g class="x"><path class="xgrid crisp" transform="translate(264.17,0)" d="M0,100v380" style="stroke: rgb(0, 0, 0); stroke-opacity: 0.1; stroke-width: 1px;"/><path class="xgrid crisp" transform="translate(355.33000000000004,0)" d="M0,100v380" style="stroke: rgb(0, 0, 0); stroke-opacity: 0.1; stroke-width: 1px;"/><path class="xgrid crisp" transform="translate(446.5,0)" d="M0,100v380" style="stroke: rgb(0, 0, 0); stroke-opacity: 0.1; stroke-width: 1px;"/><path class="xgrid crisp" transform="translate(537.6700000000001,0)" d="M0,100v380" style="stroke: rgb(0, 0, 0); stroke-opacity: 0.1; stroke-width: 1px;"/><path class="xgrid crisp" transform="translate(628.8299999999999,0)" d="M0,100v380" style="stroke: rgb(0, 0, 0); stroke-opacity: 0.1; stroke-width: 1px;"/></g><g class="y"><path class="ygrid crisp" transform="translate(0,213.95)" d="M173,0h547" style="stroke: rgb(0, 0, 0); stroke-opacity: 0.1; stroke-width: 1px;"/><path class="ygrid crisp" transform="translate(0,263.36)" d="M173,0h547" style="stroke: rgb(0, 0, 0); stroke-opacity: 0.1; stroke-width: 1px;"/><path class="ygrid crisp" transform="translate(0,312.77)" d="M173,0h547" style="stroke: rgb(0, 0, 0); stroke-opacity: 0.1; stroke-width: 1px;"/><path class="ygrid crisp" transform="translate(0,362.18)" d="M173,0h547" style="stroke: rgb(0, 0, 0); stroke-opacity: 0.1; stroke-width: 1px;"/><path class="ygrid crisp" transform="translate(0,411.59)" d="M173,0h547" style="stroke: rgb(0, 0, 0); stroke-opacity: 0.1; stroke-width: 1px;"/><path class="ygrid crisp" transform="translate(0,461)" d="M173,0h547" style="stroke: rgb(0, 0, 0); stroke-opacity: 0.1; stroke-width: 1px;"/></g></g><g class="zerolinelayer"/><g class="layer-between"><g class="shapelayer"/><g class="imagelayer"/></g><path class="xlines-below"/><path class="ylines-below"/><g class="overlines-below"/><g class="xaxislayer-below"/><g class="yaxislayer-below"/><g class="overaxes-below"/><g class="overplot"><g class="xy" transform="translate(173,100)" clip-path="url(#clipab30f2xyplot)"><g class="scatterlayer mlayer"><g class="trace scatter trace61eacd" style="stroke-miterlimit: 2;"><g class="fills"><g><path class="js-fill" d="M-47.36,111.45L34.97,110.66L36.06,110.61L73.38,108.22L74.48,108.1L92.04,105.43L93.14,105.2L106.31,101.76L107.41,101.41L120.58,96.4L121.68,95.91L134.85,89.19L135.95,88.56L150.22,79.29L151.32,78.5L166.68,66.3L167.78,65.36L190.83,44.5L191.93,43.51L206.2,31.7L207.3,30.9L217.18,24.72L218.27,24.16L227.06,20.68L228.15,20.37L235.84,19.1L236.93,19.04L244.62,19.42L245.72,19.59L254.5,21.86L255.59,22.25L265.47,26.67L266.57,27.25L279.74,35.09L280.84,35.8L320.36,60.67L321.45,61.27L341.21,71.25L342.31,71.75L359.87,78.94L360.97,79.32L374.14,83.09L375.24,83.33L388.41,85.25L389.51,85.34L404.88,85.76L405.97,85.76L425.73,86.25L426.83,86.34L440,88.28L441.1,88.51L456.47,92.58L457.56,92.91L494.88,103.83L495.98,104.08L500.37,105.07L500.37,113.95L-47.36,113.95Z" style="fill: rgb(255, 255, 217); fill-opacity: 0.6; stroke-width: 0;"/></g></g><g class="errorbars"/><g class="lines"><path class="js-line" d="M-47.36,113.95L500.37,113.95" style="vector-effect: none; fill: none; stroke: rgb(0, 0, 0); stroke-opacity: 0; stroke-width: 0px; opacity: 1;"/></g><g class="points"/><g class="text"/></g><g class="trace scatter tracee28e19" style="stroke-miterlimit: 2;"><g class="fills"/><g class="errorbars"/><g class="lines"><path class="js-line" d="M-47.36,111.45L34.97,110.66L36.06,110.61L73.38,108.22L74.48,108.1L92.04,105.43L93.14,105.2L106.31,101.76L107.41,101.41L120.58,96.4L121.68,95.91L134.85,89.19L135.95,88.56L150.22,79.29L151.32,78.5L166.68,66.3L167.78,65.36L190.83,44.5L191.93,43.51L206.2,31.7L207.3,30.9L217.18,24.72L218.27,24.16L227.06,20.68L228.15,20.37L235.84,19.1L236.93,19.04L244.62,19.42L245.72,19.59L254.5,21.86L255.59,22.25L265.47,26.67L266.57,27.25L279.74,35.09L280.84,35.8L320.36,60.67L321.45,61.27L341.21,71.25L342.31,71.75L359.87,78.94L360.97,79.32L374.14,83.09L375.24,83.33L388.41,85.25L389.51,85.34L404.88,85.76L405.97,85.76L425.73,86.25L426.83,86.34L440,88.28L441.1,88.51L456.47,92.58L457.56,92.91L494.88,103.83L495.98,104.08L500.37,105.07" style="vector-effect: none; fill: none; stroke: rgb(0, 0, 0); stroke-opacity: 1; stroke-width: 1.5px; opacity: 1;"/></g><g class="points"/><g class="text"/></g></g></g></g><path class="xlines-above crisp" d="M0,0" style="fill: none;"/><path class="ylines-above crisp" d="M0,0" style="fill: none;"/><g class="overlines-above"/><g class="xaxislayer-above"><g class="xtick"><text text-anchor="middle" x="0" y="497" transform="translate(173,0)" style="font-family: 'Open Sans', verdana, arial, sans-serif; font-size: 16px; fill: rgb(42, 63, 95); fill-opacity: 1; white-space: pre; opacity: 1;">−3</text></g><g class="xtick"><text text-anchor="middle" x="0" y="497" style="font-family: 'Open Sans', verdana, arial, sans-serif; font-size: 16px; fill: rgb(42, 63, 95); fill-opacity: 1; white-space: pre; opacity: 1;" transform="translate(264.17,0)">−2</text></g><g class="xtick"><text text-anchor="middle" x="0" y="497" style="font-family: 'Open Sans', verdana, arial, sans-serif; font-size: 16px; fill: rgb(42, 63, 95); fill-opacity: 1; white-space: pre; opacity: 1;" transform="translate(355.33000000000004,0)">−1</text></g><g class="xtick"><text text-anchor="middle" x="0" y="497" style="font-family: 'Open Sans', verdana, arial, sans-serif; font-size: 16px; fill: rgb(42, 63, 95); fill-opacity: 1; white-space: pre; opacity: 1;" transform="translate(446.5,0)">0</text></g><g class="xtick"><text text-anchor="middle" x="0" y="497" style="font-family: 'Open Sans', verdana, arial, sans-serif; font-size: 16px; fill: rgb(42, 63, 95); fill-opacity: 1; white-space: pre; opacity: 1;" transform="translate(537.6700000000001,0)">1</text></g><g class="xtick"><text text-anchor="middle" x="0" y="497" style="font-family: 'Open Sans', verdana, arial, sans-serif; font-size: 16px; fill: rgb(42, 63, 95); fill-opacity: 1; white-space: pre; opacity: 1;" transform="translate(628.8299999999999,0)">2</text></g><g class="xtick"><text text-anchor="middle" x="0" y="497" style="font-family: 'Open Sans', verdana, arial, sans-serif; font-size: 16px; fill: rgb(42, 63, 95); fill-opacity: 1; white-space: pre; opacity: 1;" transform="translate(720,0)">3</text></g></g><g class="yaxislayer-above"><g class="ytick"><text text-anchor="end" x="172" y="5.6" transform="translate(0,213.95)" style="font-family: 'Open Sans', verdana, arial, sans-serif; font-size: 16px; fill: rgb(42, 63, 95); fill-opacity: 1; white-space: pre; opacity: 1;">Observed: Group 0</text></g><g class="ytick"><text text-anchor="end" x="172" y="5.6" style="font-family: 'Open Sans', verdana, arial, sans-serif; font-size: 16px; fill: rgb(42, 63, 95); fill-opacity: 1; white-space: pre; opacity: 1;" transform="translate(0,263.36)">Observed: Group 1</text></g><g class="ytick"><text text-anchor="end" x="172" y="5.6" style="font-family: 'Open Sans', verdana, arial, sans-serif; font-size: 16px; fill: rgb(42, 63, 95); fill-opacity: 1; white-space: pre; opacity: 1;" transform="translate(0,312.77)">A-Optimal: Group 0</text></g><g class="ytick"><text text-anchor="end" x="172" y="5.6" style="font-family: 'Open Sans', verdana, arial, sans-serif; font-size: 16px; fill: rgb(42, 63, 95); fill-opacity: 1; white-space: pre; opacity: 1;" transform="translate(0,362.18)">A-Optimal: Group 1</text></g><g class="ytick"><text text-anchor="end" x="172" y="5.6" style="font-family: 'Open Sans', verdana, arial, sans-serif; font-size: 16px; fill: rgb(42, 63, 95); fill-opacity: 1; white-space: pre; opacity: 1;" transform="translate(0,411.59)">Difference: Group 0</text></g><g class="ytick"><text text-anchor="end" x="172" y="5.6" style="font-family: 'Open Sans', verdana, arial, sans-serif; font-size: 16px; fill: rgb(42, 63, 95); fill-opacity: 1; white-space: pre; opacity: 1;" transform="translate(0,461)">Difference: Group 1</text></g></g><g class="overaxes-above"/></g><g class="subplot xyz2"><g class="overplot"><g class="xyz2" transform="translate(173,100)" clip-path="url(#clipab30f2xyz2plot)"><g class="scatterlayer2 mlayer"><g class="trace scatter tracede7394" style="stroke-miterlimit: 2;"><g class="fills"><g><path class="js-fill" d="M52.65,157.72L91.45,153.92L92.32,153.78L106.98,150.31L107.84,150.04L119.91,145.39L120.78,145L133.71,138.01L134.58,137.48L150.96,126.36L151.82,125.74L175.97,109.3L176.83,108.8L189.77,102.21L190.63,101.84L203.57,97.24L204.43,96.99L220.82,93.18L221.68,93.02L241.52,90.07L242.38,89.98L258.76,89.16L259.63,89.17L273.43,90.05L274.29,90.15L293.26,93.11L294.12,93.26L318.27,96.7L319.13,96.78L341.56,97.87L342.42,97.9L359.67,99.16L360.53,99.29L370.88,101.41L371.74,101.65L382.09,105.39L382.95,105.77L394.16,111.79L395.03,112.33L407.96,121.29L408.82,121.94L439.01,143.76L439.87,144.28L451.95,150.59L452.81,150.97L464.02,155.05L464.88,155.3L478.68,158.38L479.54,158.53L482.99,159.05L482.99,163.36L52.65,163.36Z" style="fill: rgb(214, 239, 179); fill-opacity: 0.6; stroke-width: 0;"/></g></g><g class="errorbars"/><g class="lines"><path class="js-line" d="M52.65,163.36L482.99,163.36" style="vector-effect: none; fill: none; stroke: rgb(0, 0, 0); stroke-opacity: 0; stroke-width: 0px; opacity: 1;"/></g><g class="points"/><g class="text"/></g><g class="trace scatter trace657168" style="stroke-miterlimit: 2;"><g class="fills"/><g class="errorbars"/><g class="lines"><path class="js-line" d="M52.65,157.72L91.45,153.92L92.32,153.78L106.98,150.31L107.84,150.04L119.91,145.39L120.78,145L133.71,138.01L134.58,137.48L150.96,126.36L151.82,125.74L175.97,109.3L176.83,108.8L189.77,102.21L190.63,101.84L203.57,97.24L204.43,96.99L220.82,93.18L221.68,93.02L241.52,90.07L242.38,89.98L258.76,89.16L259.63,89.17L273.43,90.05L274.29,90.15L293.26,93.11L294.12,93.26L318.27,96.7L319.13,96.78L341.56,97.87L342.42,97.9L359.67,99.16L360.53,99.29L370.88,101.41L371.74,101.65L382.09,105.39L382.95,105.77L394.16,111.79L395.03,112.33L407.96,121.29L408.82,121.94L439.01,143.76L439.87,144.28L451.95,150.59L452.81,150.97L464.02,155.05L464.88,155.3L478.68,158.38L479.54,158.53L482.99,159.05" style="vector-effect: none; fill: none; stroke: rgb(0, 0, 0); stroke-opacity: 1; stroke-width: 1.5px; opacity: 1;"/></g><g class="points"/><g class="text"/></g></g></g></g></g><g class="subplot xyz3"><g class="overplot"><g class="xyz3" transform="translate(173,100)" clip-path="url(#clipab30f2xyz3plot)"><g class="scatterlayer3 mlayer"><g class="trace scatter trace4d2204" style="stroke-miterlimit: 2;"><g class="fills"><g><path class="js-fill" d="M144.23,198.86L159.22,193.13L159.93,192.82L174.92,185.35L175.63,184.94L188.48,176.81L189.2,176.31L207.04,162.83L207.75,162.26L227.74,147.54L228.45,147.1L237.73,142.18L238.44,141.88L246.29,139.38L247.01,139.23L254.86,138.44L255.57,138.45L263.42,139.32L264.13,139.47L272.7,141.92L273.41,142.17L302.67,152.39L303.39,152.52L311.95,153.28L312.67,153.27L321.23,152.32L321.94,152.17L331.94,149.19L332.65,148.93L364.05,136.66L364.77,136.49L373.33,135.15L374.05,135.1L382.61,135.41L383.32,135.51L391.89,137.54L392.6,137.78L401.88,141.79L402.59,142.16L413.3,148.71L414.01,149.2L429,160.5L429.71,161.06L456.12,181.11L456.84,181.58L469.68,189.26L470.4,189.64L483.24,195.54L483.96,195.82L498.23,200.68L498.94,200.89L500.37,201.3L500.37,212.77L144.23,212.77Z" style="fill: rgb(115, 200, 189); fill-opacity: 0.6; stroke-width: 0;"/></g></g><g class="errorbars"/><g class="lines"><path class="js-line" d="M144.23,212.77L500.37,212.77" style="vector-effect: none; fill: none; stroke: rgb(0, 0, 0); stroke-opacity: 0; stroke-width: 0px; opacity: 1;"/></g><g class="points"/><g class="text"/></g><g class="trace scatter trace9c0967" style="stroke-miterlimit: 2;"><g class="fills"/><g class="errorbars"/><g class="lines"><path class="js-line" d="M144.23,198.86L159.22,193.13L159.93,192.82L174.92,185.35L175.63,184.94L188.48,176.81L189.2,176.31L207.04,162.83L207.75,162.26L227.74,147.54L228.45,147.1L237.73,142.18L238.44,141.88L246.29,139.38L247.01,139.23L254.86,138.44L255.57,138.45L263.42,139.32L264.13,139.47L272.7,141.92L273.41,142.17L302.67,152.39L303.39,152.52L311.95,153.28L312.67,153.27L321.23,152.32L321.94,152.17L331.94,149.19L332.65,148.93L364.05,136.66L364.77,136.49L373.33,135.15L374.05,135.1L382.61,135.41L383.32,135.51L391.89,137.54L392.6,137.78L401.88,141.79L402.59,142.16L413.3,148.71L414.01,149.2L429,160.5L429.71,161.06L456.12,181.11L456.84,181.58L469.68,189.26L470.4,189.64L483.24,195.54L483.96,195.82L498.23,200.68L498.94,200.89L500.37,201.3" style="vector-effect: none; fill: none; stroke: rgb(0, 0, 0); stroke-opacity: 1; stroke-width: 1.5px; opacity: 1;"/></g><g class="points"/><g class="text"/></g></g></g></g></g><g class="subplot xyz4"><g class="overplot"><g class="xyz4" transform="translate(173,100)" clip-path="url(#clipab30f2xyz4plot)"><g class="scatterlayer4 mlayer"><g class="trace scatter trace625eb5" style="stroke-miterlimit: 2;"><g class="fills"><g><path class="js-fill" d="M-47.36,259.81L4.94,259.12L5.91,259.03L26.25,256.43L27.22,256.28L59.18,252.37L60.15,252.29L92.11,249.01L93.08,248.83L104.7,245.76L105.67,245.42L115.36,241.2L116.33,240.68L125.04,235.22L126.01,234.52L135.7,226.45L136.67,225.54L148.29,213.41L149.26,212.31L179.28,178.43L180.25,177.53L188.97,170.58L189.94,169.94L197.68,165.93L198.65,165.56L205.43,163.81L206.4,163.67L214.15,163.46L215.12,163.53L224.8,165.23L225.77,165.47L243.21,170.69L244.18,170.99L263.55,176.09L264.51,176.31L288.73,182.54L289.7,182.86L301.32,187.63L302.29,188.11L312.94,194.23L313.91,194.87L325.53,203.54L326.5,204.33L344.9,220.64L345.87,221.51L361.37,234.42L362.34,235.13L372.99,242.04L373.96,242.58L385.58,247.98L386.55,248.35L400.11,252.45L401.08,252.68L416.58,255.62L417.55,255.76L435.95,258.02L435.95,262.18L-47.36,262.18Z" style="fill: rgb(36, 152, 193); fill-opacity: 0.6; stroke-width: 0;"/></g></g><g class="errorbars"/><g class="lines"><path class="js-line" d="M-47.36,262.18L435.95,262.18" style="vector-effect: none; fill: none; stroke: rgb(0, 0, 0); stroke-opacity: 0; stroke-width: 0px; opacity: 1;"/></g><g class="points"/><g class="text"/></g><g class="trace scatter trace0ea29b" style="stroke-miterlimit: 2;"><g class="fills"/><g class="errorbars"/><g class="lines"><path class="js-line" d="M-47.36,259.81L4.94,259.12L5.91,259.03L26.25,256.43L27.22,256.28L59.18,252.37L60.15,252.29L92.11,249.01L93.08,248.83L104.7,245.76L105.67,245.42L115.36,241.2L116.33,240.68L125.04,235.22L126.01,234.52L135.7,226.45L136.67,225.54L148.29,213.41L149.26,212.31L179.28,178.43L180.25,177.53L188.97,170.58L189.94,169.94L197.68,165.93L198.65,165.56L205.43,163.81L206.4,163.67L214.15,163.46L215.12,163.53L224.8,165.23L225.77,165.47L243.21,170.69L244.18,170.99L263.55,176.09L264.51,176.31L288.73,182.54L289.7,182.86L301.32,187.63L302.29,188.11L312.94,194.23L313.91,194.87L325.53,203.54L326.5,204.33L344.9,220.64L345.87,221.51L361.37,234.42L362.34,235.13L372.99,242.04L373.96,242.58L385.58,247.98L386.55,248.35L400.11,252.45L401.08,252.68L416.58,255.62L417.55,255.76L435.95,258.02" style="vector-effect: none; fill: none; stroke: rgb(0, 0, 0); stroke-opacity: 1; stroke-width: 1.5px; opacity: 1;"/></g><g class="points"/><g class="text"/></g></g></g></g></g><g class="subplot xyz5"><g class="overplot"><g class="xyz5" transform="translate(173,100)" clip-path="url(#clipab30f2xyz5plot)"><g class="scatterlayer5 mlayer"><g class="trace scatter trace3a62f2" style="stroke-miterlimit: 2;"><g class="fills"><g><path class="js-fill" d="M-24.2,308.7L11.57,306.84L12.52,306.77L34.17,304.23L35.11,304.08L52.99,300.47L53.93,300.23L68.99,295.66L69.93,295.32L84.05,289.48L85,289.03L101,280.58L101.94,280.04L149.95,252.03L150.89,251.59L164.06,246.29L165.01,245.98L178.18,242.38L179.13,242.18L194.19,239.83L195.13,239.73L213.01,238.57L213.95,238.54L241.25,238.68L242.19,238.72L261.96,240.1L262.9,240.21L278.9,242.63L279.84,242.82L293.96,246.37L294.91,246.66L309.03,251.72L309.97,252.1L328.79,260.71L329.73,261.17L363.62,276.87L364.56,277.24L380.56,282.79L381.51,283.08L404.1,289.06L405.04,289.29L445.51,299.48L445.51,311.59L-24.2,311.59Z" style="fill: rgb(35, 77, 160); fill-opacity: 0.6; stroke-width: 0;"/></g></g><g class="errorbars"/><g class="lines"><path class="js-line" d="M-24.2,311.59L445.51,311.59" style="vector-effect: none; fill: none; stroke: rgb(0, 0, 0); stroke-opacity: 0; stroke-width: 0px; opacity: 1;"/></g><g class="points"/><g class="text"/></g><g class="trace scatter trace3e54c4" style="stroke-miterlimit: 2;"><g class="fills"/><g class="errorbars"/><g class="lines"><path class="js-line" d="M-24.2,308.7L11.57,306.84L12.52,306.77L34.17,304.23L35.11,304.08L52.99,300.47L53.93,300.23L68.99,295.66L69.93,295.32L84.05,289.48L85,289.03L101,280.58L101.94,280.04L149.95,252.03L150.89,251.59L164.06,246.29L165.01,245.98L178.18,242.38L179.13,242.18L194.19,239.83L195.13,239.73L213.01,238.57L213.95,238.54L241.25,238.68L242.19,238.72L261.96,240.1L262.9,240.21L278.9,242.63L279.84,242.82L293.96,246.37L294.91,246.66L309.03,251.72L309.97,252.1L328.79,260.71L329.73,261.17L363.62,276.87L364.56,277.24L380.56,282.79L381.51,283.08L404.1,289.06L405.04,289.29L445.51,299.48" style="vector-effect: none; fill: none; stroke: rgb(0, 0, 0); stroke-opacity: 1; stroke-width: 1.5px; opacity: 1;"/></g><g class="points"/><g class="text"/></g></g></g></g></g><g class="subplot xyz6"><g class="overplot"><g class="xyz6" transform="translate(173,100)" clip-path="url(#clipab30f2xyz6plot)"><g class="scatterlayer6 mlayer"><g class="trace scatter traced1fe17" style="stroke-miterlimit: 2;"><g class="fills"><g><path class="js-fill" d="M145.11,344.59L161.25,335.97L161.93,335.58L180.08,323.88L180.75,323.42L225.81,292.33L226.48,291.95L238.59,285.92L239.26,285.63L250.69,281.42L251.36,281.21L270.86,275.94L271.54,275.77L305.83,267.1L306.5,267.02L314.57,266.84L315.25,266.9L322.64,268.51L323.32,268.74L330.04,271.94L330.71,272.34L338.11,277.72L338.78,278.28L348.2,287.2L348.87,287.88L368.37,307.23L369.04,307.8L378.46,314.64L379.13,315.04L387.2,318.97L387.87,319.23L397.29,322L397.96,322.14L412.75,324.72L413.43,324.83L432.93,329.06L433.6,329.24L455.79,336.27L456.46,336.5L480.67,345.04L480.67,361L145.11,361Z" style="fill: rgb(8, 29, 88); fill-opacity: 0.6; stroke-width: 0;"/></g></g><g class="errorbars"/><g class="lines"><path class="js-line" d="M145.11,361L480.67,361" style="vector-effect: none; fill: none; stroke: rgb(0, 0, 0); stroke-opacity: 0; stroke-width: 0px; opacity: 1;"/></g><g class="points"/><g class="text"/></g><g class="trace scatter tracec9d41e" style="stroke-miterlimit: 2;"><g class="fills"/><g class="errorbars"/><g class="lines"><path class="js-line" d="M145.11,344.59L161.25,335.97L161.93,335.58L180.08,323.88L180.75,323.42L225.81,292.33L226.48,291.95L238.59,285.92L239.26,285.63L250.69,281.42L251.36,281.21L270.86,275.94L271.54,275.77L305.83,267.1L306.5,267.02L314.57,266.84L315.25,266.9L322.64,268.51L323.32,268.74L330.04,271.94L330.71,272.34L338.11,277.72L338.78,278.28L348.2,287.2L348.87,287.88L368.37,307.23L369.04,307.8L378.46,314.64L379.13,315.04L387.2,318.97L387.87,319.23L397.29,322L397.96,322.14L412.75,324.72L413.43,324.83L432.93,329.06L433.6,329.24L455.79,336.27L456.46,336.5L480.67,345.04" style="vector-effect: none; fill: none; stroke: rgb(0, 0, 0); stroke-opacity: 1; stroke-width: 1.5px; opacity: 1;"/></g><g class="points"/><g class="text"/></g></g></g></g></g></g><g class="polarlayer"/><g class="smithlayer"/><g class="ternarylayer"/><g class="geolayer"/><g class="funnelarealayer"/><g class="pielayer"/><g class="iciclelayer"/><g class="treemaplayer"/><g class="sunburstlayer"/><g class="glimages"/><defs id="topdefs-ab30f2"><g class="clips"/></defs><g class="layer-above"><g class="imagelayer"/><g class="shapelayer"/></g><g class="infolayer"><g class="g-gtitle"><text class="gtitle" x="40" y="50" text-anchor="start" dy="0em" style="opacity: 1; font-family: 'Open Sans', verdana, arial, sans-serif; font-size: 22px; fill: rgb(42, 63, 95); fill-opacity: 1; white-space: pre;">Bias' effect on the payoffs of Applicants</text></g><g class="g-xtitle"><text class="xtitle" x="446.5" y="528.3" text-anchor="middle" style="opacity: 1; font-family: 'Open Sans', verdana, arial, sans-serif; font-size: 19px; fill: rgb(42, 63, 95); fill-opacity: 1; white-space: pre;">Z-Score</text></g><g class="g-ytitle"/></g></svg>