<svg class="main-svg" xmlns="http://www.w3.org/2000/svg" xmlns:xlink="http://www.w3.org/1999/xlink" width="800" height="560" style="" viewBox="0 0 800 560"><rect x="0" y="0" width="800" height="560" style="fill: rgb(255, 255, 255); fill-opacity: 1;"/><defs id="defs-019b43"><g class="clips"><clipPath id="clip019b43xyplot" class="plotclip"><rect width="551" height="380"/></clipPath><clipPath id="clip019b43xyz2plot" class="plotclip"><rect width="551" height="380"/></clipPath><clipPath id="clip019b43xyz3plot" class="plotclip"><rect width="551" height="380"/></clipPath><clipPath id="clip019b43xyz4plot" class="plotclip"><rect width="551" height="380"/></clipPath><clipPath class="axesclip" id="clip019b43x"><rect x="169" y="0" width="551" height="560"/></clipPath><clipPath class="axesclip" id="clip019b43y"><rect x="0" y="100" width="800" height="380"/></clipPath><clipPath class="axesclip" id="clip019b43xy"><rect x="169" y="100" width="551" height="380"/></clipPath></g><g class="gradients"/><g class="patterns"/></defs><g class="bglayer"/><g class="layer-below"><g class="imagelayer"/><g class="shapelayer"/></g><g class="cartesianlayer"><g class="subplot xy"><g class="layer-subplot"><g class="shapelayer"/><g class="imagelayer"/></g><g class="minor-gridlayer"><g class="x"/><g class="y"/></g><g class="gridlayer"><g class="x"><path class="xgrid crisp" transform="translate(260.83,0)" d="M0,100v380" style="stroke: rgb(0, 0, 0); stroke-opacity: 0.1; stroke-width: 1px;"/><path class="xgrid crisp" transform="translate(352.66999999999996,0)" d="M0,100v380" style="stroke: rgb(0, 0, 0); stroke-opacity: 0.1; stroke-width: 1px;"/><path class="xgrid crisp" transform="translate(444.5,0)" d="M0,100v380" style="stroke: rgb(0, 0, 0); stroke-opacity: 0.1; stroke-width: 1px;"/><path class="xgrid crisp" transform="translate(536.3299999999999,0)" d="M0,100v380" style="stroke: rgb(0, 0, 0); stroke-opacity: 0.1; stroke-width: 1px;"/><path class="xgrid crisp" transform="translate(628.1700000000001,0)" d="M0,100v380" style="stroke: rgb(0, 0, 0); stroke-opacity: 0.1; stroke-width: 1px;"/></g><g class="y"><path class="ygrid crisp" transform="translate(0,243.59)" d="M169,0h551" style="stroke: rgb(0, 0, 0); stroke-opacity: 0.1; stroke-width: 1px;"/><path class="ygrid crisp" transform="translate(0,316.06)" d="M169,0h551" style="stroke: rgb(0, 0, 0); stroke-opacity: 0.1; stroke-width: 1px;"/><path class="ygrid crisp" transform="translate(0,388.53)" d="M169,0h551" style="stroke: rgb(0, 0, 0); stroke-opacity: 0.1; stroke-width: 1px;"/><path class="ygrid crisp" transform="translate(0,461)" d="M169,0h551" style="stroke: rgb(0, 0, 0); stroke-opacity: 0.1; stroke-width: 1px;"/></g></g><g class="zerolinelayer"/><g class="layer-between"><g class="shapelayer"/><g class="imagelayer"/></g><path class="xlines-below"/><path class="ylines-below"/><g class="overlines-below"/><g class="xaxislayer-below"/><g class="yaxislayer-below"/><g class="overaxes-below"/><g class="overplot"><g class="xy" transform="translate(169,100)" clip-path="url(#clip019b43xyplot)"><g class="scatterlayer mlayer"><g class="trace scatter trace10351b" style="stroke-miterlimit: 2;"><g class="fills"><g><path class="js-fill" d="M129.78,126.99L155.87,117.82L156.74,117.48L173.26,110.1L174.13,109.65L186.31,102.38L187.18,101.78L197.61,93.7L198.48,92.95L209.79,81.99L210.66,81.07L224.58,65.01L225.45,63.96L245.45,40.39L246.32,39.47L255.89,30.5L256.76,29.8L264.58,24.5L265.45,24.03L273.28,20.77L274.15,20.52L281.98,19.15L282.85,19.09L292.41,19.34L293.28,19.43L309.81,22.06L310.68,22.22L333.29,25.39L334.16,25.49L352.42,28.1L353.29,28.28L364.6,31.32L365.47,31.62L376.78,36.43L377.65,36.88L388.08,43.03L388.95,43.61L401.13,52.68L402,53.39L416.78,66.35L417.65,67.15L448.09,94.28L448.96,94.97L462.88,104.76L463.75,105.29L475.93,111.94L476.8,112.36L491.58,118.56L492.45,118.88L512.45,125.48L513.32,125.74L540.29,132.74L541.15,132.92L563.77,136.95L563.77,143.59L129.78,143.59Z" style="fill: rgb(255, 255, 217); fill-opacity: 0.6; stroke-width: 0;"/></g></g><g class="errorbars"/><g class="lines"><path class="js-line" d="M129.78,143.59L563.77,143.59" style="vector-effect: none; fill: none; stroke: rgb(0, 0, 0); stroke-opacity: 0; stroke-width: 0px; opacity: 1;"/></g><g class="points"/><g class="text"/></g><g class="trace scatter tracec2278a" style="stroke-miterlimit: 2;"><g class="fills"/><g class="errorbars"/><g class="lines"><path class="js-line" d="M129.78,126.99L155.87,117.82L156.74,117.48L173.26,110.1L174.13,109.65L186.31,102.38L187.18,101.78L197.61,93.7L198.48,92.95L209.79,81.99L210.66,81.07L224.58,65.01L225.45,63.96L245.45,40.39L246.32,39.47L255.89,30.5L256.76,29.8L264.58,24.5L265.45,24.03L273.28,20.77L274.15,20.52L281.98,19.15L282.85,19.09L292.41,19.34L293.28,19.43L309.81,22.06L310.68,22.22L333.29,25.39L334.16,25.49L352.42,28.1L353.29,28.28L364.6,31.32L365.47,31.62L376.78,36.43L377.65,36.88L388.08,43.03L388.95,43.61L401.13,52.68L402,53.39L416.78,66.35L417.65,67.15L448.09,94.28L448.96,94.97L462.88,104.76L463.75,105.29L475.93,111.94L476.8,112.36L491.58,118.56L492.45,118.88L512.45,125.48L513.32,125.74L540.29,132.74L541.15,132.92L563.77,136.95" style="vector-effect: none; fill: none; stroke: rgb(0, 0, 0); stroke-opacity: 1; stroke-width: 1.5px; opacity: 1;"/></g><g class="points"/><g class="text"/></g></g></g></g><path class="xlines-above crisp" d="M0,0" style="fill: none;"/><path class="ylines-above crisp" d="M0,0" style="fill: none;"/><g class="overlines-above"/><g class="xaxislayer-above"><g class="xtick"><text text-anchor="middle" x="0" y="497" transform="translate(169,0)" style="font-family: 'Open Sans', verdana, arial, sans-serif; font-size: 16px; fill: rgb(42, 63, 95); fill-opacity: 1; white-space: pre; opacity: 1;">−3</text></g><g class="xtick"><text text-anchor="middle" x="0" y="497" style="font-family: 'Open Sans', verdana, arial, sans-serif; font-size: 16px; fill: rgb(42, 63, 95); fill-opacity: 1; white-space: pre; opacity: 1;" transform="translate(260.83,0)">−2</text></g><g class="xtick"><text text-anchor="middle" x="0" y="497" style="font-family: 'Open Sans', verdana, arial, sans-serif; font-size: 16px; fill: rgb(42, 63, 95); fill-opacity: 1; white-space: pre; opacity: 1;" transform="translate(352.66999999999996,0)">−1</text></g><g class="xtick"><text text-anchor="middle" x="0" y="497" style="font-family: 'Open Sans', verdana, arial, sans-serif; font-size: 16px; fill: rgb(42, 63, 95); fill-opacity: 1; white-space: pre; opacity: 1;" transform="translate(444.5,0)">0</text></g><g class="xtick"><text text-anchor="middle" x="0" y="497" style="font-family: 'Open Sans', verdana, arial, sans-serif; font-size: 16px; fill: rgb(42, 63, 95); fill-opacity: 1; white-space: pre; opacity: 1;" transform="translate(536.3299999999999,0)">1</text></g><g class="xtick"><text text-anchor="middle" x="0" y="497" style="font-family: 'Open Sans', verdana, arial, sans-serif; font-size: 16px; fill: rgb(42, 63, 95); fill-opacity: 1; white-space: pre; opacity: 1;" transform="translate(628.1700000000001,0)">2</text></g><g class="xtick"><text text-anchor="middle" x="0" y="497" style="font-family: 'Open Sans', verdana, arial, sans-serif; font-size: 16px; fill: rgb(42, 63, 95); fill-opacity: 1; white-space: pre; opacity: 1;" transform="translate(720,0)">3</text></g></g><g class="yaxislayer-above"><g class="ytick"><text text-anchor="end" x="168" y="5.6" transform="translate(0,243.59)" style="font-family: 'Open Sans', verdana, arial, sans-serif; font-size: 16px; fill: rgb(42, 63, 95); fill-opacity: 1; white-space: pre; opacity: 1;">Biased: Group 0</text></g><g class="ytick"><text text-anchor="end" x="168" y="5.6" style="font-family: 'Open Sans', verdana, arial, sans-serif; font-size: 16px; fill: rgb(42, 63, 95); fill-opacity: 1; white-space: pre; opacity: 1;" transform="translate(0,316.06)">Biased: Group 1</text></g><g class="ytick"><text text-anchor="end" x="168" y="5.6" style="font-family: 'Open Sans', verdana, arial, sans-serif; font-size: 16px; fill: rgb(42, 63, 95); fill-opacity: 1; white-space: pre; opacity: 1;" transform="translate(0,388.53)">Corrected: Group 0</text></g><g class="ytick"><text text-anchor="end" x="168" y="5.6" style="font-family: 'Open Sans', verdana, arial, sans-serif; font-size: 16px; fill: rgb(42, 63, 95); fill-opacity: 1; white-space: pre; opacity: 1;" transform="translate(0,461)">Corrected: Group 1</text></g></g><g class="overaxes-above"/></g><g class="subplot xyz2"><g class="overplot"><g class="xyz2" transform="translate(169,100)" clip-path="url(#clip019b43xyz2plot)"><g class="scatterlayer2 mlayer"><g class="trace scatter tracefdd647" style="stroke-miterlimit: 2;"><g class="fills"><g><path class="js-fill" d="M53.36,198.51L100.95,175.79L101.73,175.34L112.65,168.07L113.43,167.48L124.35,158L125.13,157.24L137.61,144.06L138.39,143.19L159.45,120.78L160.23,120.06L170.37,111.88L171.15,111.34L180.51,105.96L181.29,105.59L190.65,102L191.43,101.76L203.91,98.69L204.69,98.53L234.33,91.83L235.11,91.58L247.59,86.83L248.37,86.49L279.57,72.15L280.35,71.95L286.59,71.12L287.37,71.12L292.83,71.94L293.61,72.18L299.07,74.77L299.85,75.28L305.31,79.84L306.09,80.63L312.33,88.24L313.11,89.35L320.91,101.97L321.69,103.37L333.39,126.29L334.17,127.88L349.77,158.37L350.55,159.74L359.13,173.43L359.91,174.53L367.71,184.27L368.49,185.11L376.29,192.35L377.07,192.97L385.65,198.59L386.43,199L395.79,203.11L396.57,203.39L407.49,206.47L408.27,206.64L423.09,209.14L423.87,209.24L442.59,211.12L442.59,216.06L53.36,216.06Z" style="fill: rgb(151, 214, 185); fill-opacity: 0.6; stroke-width: 0;"/></g></g><g class="errorbars"/><g class="lines"><path class="js-line" d="M53.36,216.06L442.59,216.06" style="vector-effect: none; fill: none; stroke: rgb(0, 0, 0); stroke-opacity: 0; stroke-width: 0px; opacity: 1;"/></g><g class="points"/><g class="text"/></g><g class="trace scatter tracea04909" style="stroke-miterlimit: 2;"><g class="fills"/><g class="errorbars"/><g class="lines"><path class="js-line" d="M53.36,198.51L100.95,175.79L101.73,175.34L112.65,168.07L113.43,167.48L124.35,158L125.13,157.24L137.61,144.06L138.39,143.19L159.45,120.78L160.23,120.06L170.37,111.88L171.15,111.34L180.51,105.96L181.29,105.59L190.65,102L191.43,101.76L203.91,98.69L204.69,98.53L234.33,91.83L235.11,91.58L247.59,86.83L248.37,86.49L279.57,72.15L280.35,71.95L286.59,71.12L287.37,71.12L292.83,71.94L293.61,72.18L299.07,74.77L299.85,75.28L305.31,79.84L306.09,80.63L312.33,88.24L313.11,89.35L320.91,101.97L321.69,103.37L333.39,126.29L334.17,127.88L349.77,158.37L350.55,159.74L359.13,173.43L359.91,174.53L367.71,184.27L368.49,185.11L376.29,192.35L377.07,192.97L385.65,198.59L386.43,199L395.79,203.11L396.57,203.39L407.49,206.47L408.27,206.64L423.09,209.14L423.87,209.24L442.59,211.12" style="vector-effect: none; fill: none; stroke: rgb(0, 0, 0); stroke-opacity: 1; stroke-width: 1.5px; opacity: 1;"/></g><g class="points"/><g class="text"/></g></g></g></g></g><g class="subplot xyz3"><g class="overplot"><g class="xyz3" transform="translate(169,100)" clip-path="url(#clip019b43xyz3plot)"><g class="scatterlayer3 mlayer"><g class="trace scatter trace1ed919" style="stroke-miterlimit: 2;"><g class="fills"><g><path class="js-fill" d="M60.42,273.88L93.93,264.57L94.91,264.25L110.68,258.58L111.67,258.18L126.45,251.11L127.44,250.56L140.25,242.48L141.24,241.78L154.05,231.7L155.04,230.85L172.78,214.52L173.77,213.58L192.49,196.66L193.48,195.86L204.32,188.13L205.31,187.53L214.18,183.03L215.16,182.63L224.03,179.94L225.02,179.73L234.88,178.63L235.86,178.61L246.7,179.06L247.69,179.15L276.27,182.79L277.26,182.9L318.66,187.66L319.64,187.86L333.44,191.5L334.43,191.82L348.23,197.38L349.21,197.84L363.01,205.28L364,205.87L381.74,217.58L382.72,218.27L423.14,246.22L424.12,246.81L439.89,255.2L440.88,255.66L455.66,261.69L456.65,262.04L473.4,267.28L474.39,267.56L501.99,274.33L502.97,274.55L532.54,280.06L533.53,280.21L552.26,282.67L552.26,288.53L60.42,288.53Z" style="fill: rgb(31, 128, 184); fill-opacity: 0.6; stroke-width: 0;"/></g></g><g class="errorbars"/><g class="lines"><path class="js-line" d="M60.42,288.53L552.26,288.53" style="vector-effect: none; fill: none; stroke: rgb(0, 0, 0); stroke-opacity: 0; stroke-width: 0px; opacity: 1;"/></g><g class="points"/><g class="text"/></g><g class="trace scatter trace8a6e1b" style="stroke-miterlimit: 2;"><g class="fills"/><g class="errorbars"/><g class="lines"><path class="js-line" d="M60.42,273.88L93.93,264.57L94.91,264.25L110.68,258.58L111.67,258.18L126.45,251.11L127.44,250.56L140.25,242.48L141.24,241.78L154.05,231.7L155.04,230.85L172.78,214.52L173.77,213.58L192.49,196.66L193.48,195.86L204.32,188.13L205.31,187.53L214.18,183.03L215.16,182.63L224.03,179.94L225.02,179.73L234.88,178.63L235.86,178.61L246.7,179.06L247.69,179.15L276.27,182.79L277.26,182.9L318.66,187.66L319.64,187.86L333.44,191.5L334.43,191.82L348.23,197.38L349.21,197.84L363.01,205.28L364,205.87L381.74,217.58L382.72,218.27L423.14,246.22L424.12,246.81L439.89,255.2L440.88,255.66L455.66,261.69L456.65,262.04L473.4,267.28L474.39,267.56L501.99,274.33L502.97,274.55L532.54,280.06L533.53,280.21L552.26,282.67" style="vector-effect: none; fill: none; stroke: rgb(0, 0, 0); stroke-opacity: 1; stroke-width: 1.5px; opacity: 1;"/></g><g class="points"/><g class="text"/></g></g></g></g></g><g class="subplot xyz4"><g class="overplot"><g class="xyz4" transform="translate(169,100)" clip-path="url(#clip019b43xyz4plot)"><g class="scatterlayer4 mlayer"><g class="trace scatter trace0d6206" style="stroke-miterlimit: 2;"><g class="fills"><g><path class="js-fill" d="M65.44,345.51L113.18,328.09L114.06,327.73L127.32,321.61L128.21,321.14L140.58,313.58L141.47,312.97L154.73,302.74L155.61,302L189.2,274.45L190.09,273.86L200.69,267.69L201.58,267.26L212.19,262.91L213.07,262.61L226.33,259.17L227.21,258.99L251.97,255L252.85,254.86L271.41,251.16L272.3,250.94L288.21,246.04L289.09,245.72L320.92,234.2L321.8,234.01L329.76,233.11L330.64,233.11L337.71,234.04L338.6,234.28L344.78,236.78L345.67,237.26L351.86,241.5L352.74,242.23L360.7,250.19L361.58,251.22L370.42,262.82L371.3,264.1L384.56,284.6L385.45,286.01L401.36,310.09L402.24,311.31L412.85,324.36L413.73,325.31L422.57,333.69L423.46,334.41L432.3,340.62L433.18,341.15L442.91,345.95L443.79,346.31L454.4,349.82L455.28,350.06L471.19,353.26L472.08,353.39L491.53,355.54L492.41,355.61L506.55,356.64L506.55,361L65.44,361Z" style="fill: rgb(8, 29, 88); fill-opacity: 0.6; stroke-width: 0;"/></g></g><g class="errorbars"/><g class="lines"><path class="js-line" d="M65.44,361L506.55,361" style="vector-effect: none; fill: none; stroke: rgb(0, 0, 0); stroke-opacity: 0; stroke-width: 0px; opacity: 1;"/></g><g class="points"/><g class="text"/></g><g class="trace scatter trace3c7e6e" style="stroke-miterlimit: 2;"><g class="fills"/><g class="errorbars"/><g class="lines"><path class="js-line" d="M65.44,345.51L113.18,328.09L114.06,327.73L127.32,321.61L128.21,321.14L140.58,313.58L141.47,312.97L154.73,302.74L155.61,302L189.2,274.45L190.09,273.86L200.69,267.69L201.58,267.26L212.19,262.91L213.07,262.61L226.33,259.17L227.21,258.99L251.97,255L252.85,254.86L271.41,251.16L272.3,250.94L288.21,246.04L289.09,245.72L320.92,234.2L321.8,234.01L329.76,233.11L330.64,233.11L337.71,234.04L338.6,234.28L344.78,236.78L345.67,237.26L351.86,241.5L352.74,242.23L360.7,250.19L361.58,251.22L370.42,262.82L371.3,264.1L384.56,284.6L385.45,286.01L401.36,310.09L402.24,311.31L412.85,324.36L413.73,325.31L422.57,333.69L423.46,334.41L432.3,340.62L433.18,341.15L442.91,345.95L443.79,346.31L454.4,349.82L455.28,350.06L471.19,353.26L472.08,353.39L491.53,355.54L492.41,355.61L506.55,356.64" style="vector-effect: none; fill: none; stroke: rgb(0, 0, 0); stroke-opacity: 1; stroke-width: 1.5px; opacity: 1;"/></g><g class="points"/><g class="text"/></g></g></g></g></g></g><g class="polarlayer"/><g class="smithlayer"/><g class="ternarylayer"/><g class="geolayer"/><g class="funnelarealayer"/><g class="pielayer"/><g class="iciclelayer"/><g class="treemaplayer"/><g class="sunburstlayer"/><g class="glimages"/><defs id="topdefs-019b43"><g class="clips"/></defs><g class="layer-above"><g class="imagelayer"/><g class="shapelayer"/></g><g class="infolayer"><g class="g-gtitle"><text class="gtitle" x="40" y="50" text-anchor="start" dy="0em" style="opacity: 1; font-family: 'Open Sans', verdana, arial, sans-serif; font-size: 22px; fill: rgb(42, 63, 95); fill-opacity: 1; white-space: pre;">Apparent values of Applicants</text></g><g class="g-xtitle"><text class="xtitle" x="444.5" y="528.3" text-anchor="middle" style="opacity: 1; font-family: 'Open Sans', verdana, arial, sans-serif; font-size: 19px; fill: rgb(42, 63, 95); fill-opacity: 1; white-space: pre;">Z-Score</text></g><g class="g-ytitle"/></g></svg>