<svg class="main-svg" xmlns="http://www.w3.org/2000/svg" xmlns:xlink="http://www.w3.org/1999/xlink" width="800" height="560" style="" viewBox="0 0 800 560"><rect x="0" y="0" width="800" height="560" style="fill: rgb(255, 255, 255); fill-opacity: 1;"/><defs id="defs-5e06e4"><g class="clips"><clipPath id="clip5e06e4xyplot" class="plotclip"><rect width="625" height="380"/></clipPath><clipPath id="clip5e06e4xyz2plot" class="plotclip"><rect width="625" height="380"/></clipPath><clipPath class="axesclip" id="clip5e06e4x"><rect x="95" y="0" width="625" height="560"/></clipPath><clipPath class="axesclip" id="clip5e06e4y"><rect x="0" y="100" width="800" height="380"/></clipPath><clipPath class="axesclip" id="clip5e06e4xy"><rect x="95" y="100" width="625" height="380"/></clipPath></g><g class="gradients"/><g class="patterns"/></defs><g class="bglayer"/><g class="layer-below"><g class="imagelayer"/><g class="shapelayer"/></g><g class="cartesianlayer"><g class="subplot xy"><g class="layer-subplot"><g class="shapelayer"/><g class="imagelayer"/></g><g class="minor-gridlayer"><g class="x"/><g class="y"/></g><g class="gridlayer"><g class="x"><path class="xgrid crisp" transform="translate(199.17000000000002,0)" d="M0,100v380" style="stroke: rgb(0, 0, 0); stroke-opacity: 0.1; stroke-width: 1px;"/><path class="xgrid crisp" transform="translate(303.33000000000004,0)" d="M0,100v380" style="stroke: rgb(0, 0, 0); stroke-opacity: 0.1; stroke-width: 1px;"/><path class="xgrid crisp" transform="translate(407.5,0)" d="M0,100v380" style="stroke: rgb(0, 0, 0); stroke-opacity: 0.1; stroke-width: 1px;"/><path class="xgrid crisp" transform="translate(511.67,0)" d="M0,100v380" style="stroke: rgb(0, 0, 0); stroke-opacity: 0.1; stroke-width: 1px;"/><path class="xgrid crisp" transform="translate(615.83,0)" d="M0,100v380" style="stroke: rgb(0, 0, 0); stroke-opacity: 0.1; stroke-width: 1px;"/></g><g class="y"><path class="ygrid crisp" transform="translate(0,347)" d="M95,0h625" style="stroke: rgb(0, 0, 0); stroke-opacity: 0.1; stroke-width: 1px;"/><path class="ygrid crisp" transform="translate(0,461)" d="M95,0h625" style="stroke: rgb(0, 0, 0); stroke-opacity: 0.1; stroke-width: 1px;"/></g></g><g class="zerolinelayer"/><g class="layer-between"><g class="shapelayer"/><g class="imagelayer"/></g><path class="xlines-below"/><path class="ylines-below"/><g class="overlines-below"/><g class="xaxislayer-below"/><g class="yaxislayer-below"/><g class="overaxes-below"/><g class="overplot"><g class="xy" transform="translate(95,100)" clip-path="url(#clip5e06e4xyplot)"><g class="scatterlayer mlayer"><g class="trace scatter trace2226ca" style="stroke-miterlimit: 2;"><g class="fills"><g><path class="js-fill" d="M-54.11,243.69L-1.44,242.69L-0.18,242.59L22.39,239.71L23.65,239.5L93.88,227.67L95.14,227.34L106.42,223.51L107.68,222.98L117.71,217.74L118.96,216.95L127.74,210.5L129,209.44L137.78,200.97L139.03,199.6L149.06,187.34L150.32,185.64L161.61,168.77L162.86,166.74L175.4,145.02L176.66,142.74L214.28,74.47L215.54,72.44L226.82,55.63L228.08,53.93L238.11,41.68L239.37,40.32L248.14,31.93L249.4,30.89L258.18,24.81L259.43,24.12L266.96,20.85L268.21,20.46L275.74,19.09L276.99,19.02L284.52,19.59L285.77,19.85L293.3,22.34L294.55,22.91L302.07,27.19L303.33,28.04L313.36,36.03L314.62,37.15L329.67,51.92L330.92,53.21L350.99,72.73L352.24,73.82L364.78,83.64L366.04,84.5L378.58,92.2L379.83,92.89L399.9,102.91L401.15,103.52L421.22,114.14L422.48,114.88L437.53,124.78L438.78,125.69L452.58,136.75L453.83,137.85L468.88,152.13L470.13,153.41L490.2,174.82L491.45,176.18L512.78,198.18L514.03,199.36L526.57,210.08L527.83,211.03L539.11,218.7L540.37,219.45L552.91,225.92L554.16,226.47L569.21,232.15L570.47,232.55L571.72,232.95L571.72,247L-54.11,247Z" style="fill: rgb(255, 255, 217); fill-opacity: 0.6; stroke-width: 0;"/></g></g><g class="errorbars"/><g class="lines"><path class="js-line" d="M-54.11,247L571.72,247" style="vector-effect: none; fill: none; stroke: rgb(0, 0, 0); stroke-opacity: 0; stroke-width: 0px; opacity: 1;"/></g><g class="points"/><g class="text"/></g><g class="trace scatter tracefd1e0e" style="stroke-miterlimit: 2;"><g class="fills"/><g class="errorbars"/><g class="lines"><path class="js-line" d="M-54.11,243.69L-1.44,242.69L-0.18,242.59L22.39,239.71L23.65,239.5L93.88,227.67L95.14,227.34L106.42,223.51L107.68,222.98L117.71,217.74L118.96,216.95L127.74,210.5L129,209.44L137.78,200.97L139.03,199.6L149.06,187.34L150.32,185.64L161.61,168.77L162.86,166.74L175.4,145.02L176.66,142.74L214.28,74.47L215.54,72.44L226.82,55.63L228.08,53.93L238.11,41.68L239.37,40.32L248.14,31.93L249.4,30.89L258.18,24.81L259.43,24.12L266.96,20.85L268.21,20.46L275.74,19.09L276.99,19.02L284.52,19.59L285.77,19.85L293.3,22.34L294.55,22.91L302.07,27.19L303.33,28.04L313.36,36.03L314.62,37.15L329.67,51.92L330.92,53.21L350.99,72.73L352.24,73.82L364.78,83.64L366.04,84.5L378.58,92.2L379.83,92.89L399.9,102.91L401.15,103.52L421.22,114.14L422.48,114.88L437.53,124.78L438.78,125.69L452.58,136.75L453.83,137.85L468.88,152.13L470.13,153.41L490.2,174.82L491.45,176.18L512.78,198.18L514.03,199.36L526.57,210.08L527.83,211.03L539.11,218.7L540.37,219.45L552.91,225.92L554.16,226.47L569.21,232.15L570.47,232.55L571.72,232.95" style="vector-effect: none; fill: none; stroke: rgb(0, 0, 0); stroke-opacity: 1; stroke-width: 1.5px; opacity: 1;"/></g><g class="points"/><g class="text"/></g></g></g></g><path class="xlines-above crisp" d="M0,0" style="fill: none;"/><path class="ylines-above crisp" d="M0,0" style="fill: none;"/><g class="overlines-above"/><g class="xaxislayer-above"><g class="xtick"><text text-anchor="middle" x="0" y="497" transform="translate(95,0)" style="font-family: 'Open Sans', verdana, arial, sans-serif; font-size: 16px; fill: rgb(42, 63, 95); fill-opacity: 1; white-space: pre; opacity: 1;">−3</text></g><g class="xtick"><text text-anchor="middle" x="0" y="497" style="font-family: 'Open Sans', verdana, arial, sans-serif; font-size: 16px; fill: rgb(42, 63, 95); fill-opacity: 1; white-space: pre; opacity: 1;" transform="translate(199.17000000000002,0)">−2</text></g><g class="xtick"><text text-anchor="middle" x="0" y="497" style="font-family: 'Open Sans', verdana, arial, sans-serif; font-size: 16px; fill: rgb(42, 63, 95); fill-opacity: 1; white-space: pre; opacity: 1;" transform="translate(303.33000000000004,0)">−1</text></g><g class="xtick"><text text-anchor="middle" x="0" y="497" style="font-family: 'Open Sans', verdana, arial, sans-serif; font-size: 16px; fill: rgb(42, 63, 95); fill-opacity: 1; white-space: pre; opacity: 1;" transform="translate(407.5,0)">0</text></g><g class="xtick"><text text-anchor="middle" x="0" y="497" style="font-family: 'Open Sans', verdana, arial, sans-serif; font-size: 16px; fill: rgb(42, 63, 95); fill-opacity: 1; white-space: pre; opacity: 1;" transform="translate(511.67,0)">1</text></g><g class="xtick"><text text-anchor="middle" x="0" y="497" style="font-family: 'Open Sans', verdana, arial, sans-serif; font-size: 16px; fill: rgb(42, 63, 95); fill-opacity: 1; white-space: pre; opacity: 1;" transform="translate(615.83,0)">2</text></g><g class="xtick"><text text-anchor="middle" x="0" y="497" style="font-family: 'Open Sans', verdana, arial, sans-serif; font-size: 16px; fill: rgb(42, 63, 95); fill-opacity: 1; white-space: pre; opacity: 1;" transform="translate(720,0)">3</text></g></g><g class="yaxislayer-above"><g class="ytick"><text text-anchor="end" x="94" y="5.6" transform="translate(0,347)" style="font-family: 'Open Sans', verdana, arial, sans-serif; font-size: 16px; fill: rgb(42, 63, 95); fill-opacity: 1; white-space: pre; opacity: 1;">Applicants</text></g><g class="ytick"><text text-anchor="end" x="94" y="5.6" style="font-family: 'Open Sans', verdana, arial, sans-serif; font-size: 16px; fill: rgb(42, 63, 95); fill-opacity: 1; white-space: pre; opacity: 1;" transform="translate(0,461)">Reviewers</text></g></g><g class="overaxes-above"/></g><g class="subplot xyz2"><g class="overplot"><g class="xyz2" transform="translate(95,100)" clip-path="url(#clip5e06e4xyz2plot)"><g class="scatterlayer2 mlayer"><g class="trace scatter traceac4117" style="stroke-miterlimit: 2;"><g class="fills"><g><path class="js-fill" d="M68.53,336.2L135.61,302.49L136.73,301.78L147.91,293.68L149.03,292.76L159.09,283.27L160.21,282.08L170.27,270.09L171.39,268.61L182.57,252.48L183.69,250.75L219.46,194.57L220.58,193.12L229.53,182.85L230.64,181.76L238.47,175.34L239.59,174.6L246.3,171.09L247.41,170.65L255.24,168.68L256.36,168.54L265.3,168.41L266.42,168.5L280.95,170.68L282.07,170.87L296.61,172.62L297.73,172.66L307.79,172.24L308.91,172.09L318.97,169.98L320.09,169.65L332.38,165.24L333.5,164.78L356.98,155.62L358.1,155.31L367.04,153.73L368.16,153.66L375.99,154.18L377.1,154.41L383.81,156.71L384.93,157.25L391.64,161.55L392.76,162.44L399.47,168.87L400.58,170.12L408.41,180.26L409.53,181.9L418.47,196.54L419.59,198.54L431.89,222.24L433.01,224.5L456.48,270.84L457.6,272.84L468.78,291.02L469.9,292.64L478.85,304.26L479.96,305.54L488.91,314.52L490.03,315.5L498.97,322.19L500.09,322.9L510.15,328.33L511.27,328.83L523.57,333.52L524.68,333.89L545.93,339.8L547.04,340.08L588.41,349.66L589.53,349.88L613.01,353.74L614.13,353.89L626.42,355.38L626.42,361L68.53,361Z" style="fill: rgb(8, 29, 88); fill-opacity: 0.6; stroke-width: 0;"/></g></g><g class="errorbars"/><g class="lines"><path class="js-line" d="M68.53,361L626.42,361" style="vector-effect: none; fill: none; stroke: rgb(0, 0, 0); stroke-opacity: 0; stroke-width: 0px; opacity: 1;"/></g><g class="points"/><g class="text"/></g><g class="trace scatter trace0161b0" style="stroke-miterlimit: 2;"><g class="fills"/><g class="errorbars"/><g class="lines"><path class="js-line" d="M68.53,336.2L135.61,302.49L136.73,301.78L147.91,293.68L149.03,292.76L159.09,283.27L160.21,282.08L170.27,270.09L171.39,268.61L182.57,252.48L183.69,250.75L219.46,194.57L220.58,193.12L229.53,182.85L230.64,181.76L238.47,175.34L239.59,174.6L246.3,171.09L247.41,170.65L255.24,168.68L256.36,168.54L265.3,168.41L266.42,168.5L280.95,170.68L282.07,170.87L296.61,172.62L297.73,172.66L307.79,172.24L308.91,172.09L318.97,169.98L320.09,169.65L332.38,165.24L333.5,164.78L356.98,155.62L358.1,155.31L367.04,153.73L368.16,153.66L375.99,154.18L377.1,154.41L383.81,156.71L384.93,157.25L391.64,161.55L392.76,162.44L399.47,168.87L400.58,170.12L408.41,180.26L409.53,181.9L418.47,196.54L419.59,198.54L431.89,222.24L433.01,224.5L456.48,270.84L457.6,272.84L468.78,291.02L469.9,292.64L478.85,304.26L479.96,305.54L488.91,314.52L490.03,315.5L498.97,322.19L500.09,322.9L510.15,328.33L511.27,328.83L523.57,333.52L524.68,333.89L545.93,339.8L547.04,340.08L588.41,349.66L589.53,349.88L613.01,353.74L614.13,353.89L626.42,355.38" style="vector-effect: none; fill: none; stroke: rgb(0, 0, 0); stroke-opacity: 1; stroke-width: 1.5px; opacity: 1;"/></g><g class="points"/><g class="text"/></g></g></g></g></g></g><g class="polarlayer"/><g class="smithlayer"/><g class="ternarylayer"/><g class="geolayer"/><g class="funnelarealayer"/><g class="pielayer"/><g class="iciclelayer"/><g class="treemaplayer"/><g class="sunburstlayer"/><g class="glimages"/><defs id="topdefs-5e06e4"><g class="clips"/></defs><g class="layer-above"><g class="imagelayer"/><g class="shapelayer"/></g><g class="infolayer"><g class="g-gtitle"><text class="gtitle" x="40" y="50" text-anchor="start" dy="0em" style="opacity: 1; font-family: 'Open Sans', verdana, arial, sans-serif; font-size: 22px; fill: rgb(42, 63, 95); fill-opacity: 1; white-space: pre;">Available payoffs</text></g><g class="g-xtitle"><text class="xtitle" x="407.5" y="528.3" text-anchor="middle" style="opacity: 1; font-family: 'Open Sans', verdana, arial, sans-serif; font-size: 19px; fill: rgb(42, 63, 95); fill-opacity: 1; white-space: pre;">Z-Score</text></g><g class="g-ytitle"/></g></svg>