<svg class="main-svg" xmlns="http://www.w3.org/2000/svg" xmlns:xlink="http://www.w3.org/1999/xlink" width="800" height="560" style="" viewBox="0 0 800 560"><rect x="0" y="0" width="800" height="560" style="fill: rgb(255, 255, 255); fill-opacity: 1;"/><defs id="defs-c75cbf"><g class="clips"><clipPath id="clipc75cbfxyplot" class="plotclip"><rect width="625" height="380"/></clipPath><clipPath id="clipc75cbfxyz2plot" class="plotclip"><rect width="625" height="380"/></clipPath><clipPath class="axesclip" id="clipc75cbfx"><rect x="95" y="0" width="625" height="560"/></clipPath><clipPath class="axesclip" id="clipc75cbfy"><rect x="0" y="100" width="800" height="380"/></clipPath><clipPath class="axesclip" id="clipc75cbfxy"><rect x="95" y="100" width="625" height="380"/></clipPath></g><g class="gradients"/><g class="patterns"/></defs><g class="bglayer"/><g class="layer-below"><g class="imagelayer"/><g class="shapelayer"/></g><g class="cartesianlayer"><g class="subplot xy"><g class="layer-subplot"><g class="shapelayer"/><g class="imagelayer"/></g><g class="minor-gridlayer"><g class="x"/><g class="y"/></g><g class="gridlayer"><g class="x"><path class="xgrid crisp" transform="translate(199.17000000000002,0)" d="M0,100v380" style="stroke: rgb(0, 0, 0); stroke-opacity: 0.1; stroke-width: 1px;"/><path class="xgrid crisp" transform="translate(303.33000000000004,0)" d="M0,100v380" style="stroke: rgb(0, 0, 0); stroke-opacity: 0.1; stroke-width: 1px;"/><path class="xgrid crisp" transform="translate(407.5,0)" d="M0,100v380" style="stroke: rgb(0, 0, 0); stroke-opacity: 0.1; stroke-width: 1px;"/><path class="xgrid crisp" transform="translate(511.67,0)" d="M0,100v380" style="stroke: rgb(0, 0, 0); stroke-opacity: 0.1; stroke-width: 1px;"/><path class="xgrid crisp" transform="translate(615.83,0)" d="M0,100v380" style="stroke: rgb(0, 0, 0); stroke-opacity: 0.1; stroke-width: 1px;"/></g><g class="y"><path class="ygrid crisp" transform="translate(0,347)" d="M95,0h625" style="stroke: rgb(0, 0, 0); stroke-opacity: 0.1; stroke-width: 1px;"/><path class="ygrid crisp" transform="translate(0,461)" d="M95,0h625" style="stroke: rgb(0, 0, 0); stroke-opacity: 0.1; stroke-width: 1px;"/></g></g><g class="zerolinelayer"/><g class="layer-between"><g class="shapelayer"/><g class="imagelayer"/></g><path class="xlines-below"/><path class="ylines-below"/><g class="overlines-below"/><g class="xaxislayer-below"/><g class="yaxislayer-below"/><g class="overaxes-below"/><g class="overplot"><g class="xy" transform="translate(95,100)" clip-path="url(#clipc75cbfxyplot)"><g class="scatterlayer mlayer"><g class="trace scatter trace079c48" style="stroke-miterlimit: 2;"><g class="fills"><g><path class="js-fill" d="M7.96,242.06L50.81,238.57L51.88,238.41L64.73,235.83L65.8,235.54L76.51,231.9L77.59,231.45L87.23,226.56L88.3,225.92L97.94,219.22L99.01,218.38L109.72,208.8L110.79,207.73L123.65,193.84L124.72,192.6L171.85,137.78L172.92,136.65L202.91,106.59L203.98,105.51L228.62,79.36L229.69,78.19L251.11,55.79L252.18,54.77L265.04,43.74L266.11,42.92L277.89,35L278.96,34.37L291.82,27.77L292.89,27.29L305.74,22.38L306.81,22.05L317.53,19.54L318.6,19.39L327.17,19.09L328.24,19.19L334.66,20.47L335.74,20.82L342.16,23.78L343.23,24.43L349.66,29.34L350.73,30.32L358.23,38.57L359.3,39.94L367.87,52.36L368.94,54.08L380.72,74.61L381.8,76.57L401.08,110.37L402.15,112.05L411.79,125.59L412.86,126.92L421.43,136.23L422.5,137.23L431.07,144.21L432.14,144.96L442.85,151.39L443.92,151.95L463.2,161.02L464.28,161.51L488.91,173.54L489.98,174.11L508.19,184.82L509.26,185.52L524.26,196.09L525.33,196.9L542.47,210.44L542.47,247L7.96,247Z" style="fill: rgb(255, 255, 217); fill-opacity: 0.6; stroke-width: 0;"/></g></g><g class="errorbars"/><g class="lines"><path class="js-line" d="M7.96,247L542.47,247" style="vector-effect: none; fill: none; stroke: rgb(0, 0, 0); stroke-opacity: 0; stroke-width: 0px; opacity: 1;"/></g><g class="points"/><g class="text"/></g><g class="trace scatter trace87c0af" style="stroke-miterlimit: 2;"><g class="fills"/><g class="errorbars"/><g class="lines"><path class="js-line" d="M7.96,242.06L50.81,238.57L51.88,238.41L64.73,235.83L65.8,235.54L76.51,231.9L77.59,231.45L87.23,226.56L88.3,225.92L97.94,219.22L99.01,218.38L109.72,208.8L110.79,207.73L123.65,193.84L124.72,192.6L171.85,137.78L172.92,136.65L202.91,106.59L203.98,105.51L228.62,79.36L229.69,78.19L251.11,55.79L252.18,54.77L265.04,43.74L266.11,42.92L277.89,35L278.96,34.37L291.82,27.77L292.89,27.29L305.74,22.38L306.81,22.05L317.53,19.54L318.6,19.39L327.17,19.09L328.24,19.19L334.66,20.47L335.74,20.82L342.16,23.78L343.23,24.43L349.66,29.34L350.73,30.32L358.23,38.57L359.3,39.94L367.87,52.36L368.94,54.08L380.72,74.61L381.8,76.57L401.08,110.37L402.15,112.05L411.79,125.59L412.86,126.92L421.43,136.23L422.5,137.23L431.07,144.21L432.14,144.96L442.85,151.39L443.92,151.95L463.2,161.02L464.28,161.51L488.91,173.54L489.98,174.11L508.19,184.82L509.26,185.52L524.26,196.09L525.33,196.9L542.47,210.44" style="vector-effect: none; fill: none; stroke: rgb(0, 0, 0); stroke-opacity: 1; stroke-width: 1.5px; opacity: 1;"/></g><g class="points"/><g class="text"/></g></g></g></g><path class="xlines-above crisp" d="M0,0" style="fill: none;"/><path class="ylines-above crisp" d="M0,0" style="fill: none;"/><g class="overlines-above"/><g class="xaxislayer-above"><g class="xtick"><text text-anchor="middle" x="0" y="497" transform="translate(95,0)" style="font-family: 'Open Sans', verdana, arial, sans-serif; font-size: 16px; fill: rgb(42, 63, 95); fill-opacity: 1; white-space: pre; opacity: 1;">−3</text></g><g class="xtick"><text text-anchor="middle" x="0" y="497" style="font-family: 'Open Sans', verdana, arial, sans-serif; font-size: 16px; fill: rgb(42, 63, 95); fill-opacity: 1; white-space: pre; opacity: 1;" transform="translate(199.17000000000002,0)">−2</text></g><g class="xtick"><text text-anchor="middle" x="0" y="497" style="font-family: 'Open Sans', verdana, arial, sans-serif; font-size: 16px; fill: rgb(42, 63, 95); fill-opacity: 1; white-space: pre; opacity: 1;" transform="translate(303.33000000000004,0)">−1</text></g><g class="xtick"><text text-anchor="middle" x="0" y="497" style="font-family: 'Open Sans', verdana, arial, sans-serif; font-size: 16px; fill: rgb(42, 63, 95); fill-opacity: 1; white-space: pre; opacity: 1;" transform="translate(407.5,0)">0</text></g><g class="xtick"><text text-anchor="middle" x="0" y="497" style="font-family: 'Open Sans', verdana, arial, sans-serif; font-size: 16px; fill: rgb(42, 63, 95); fill-opacity: 1; white-space: pre; opacity: 1;" transform="translate(511.67,0)">1</text></g><g class="xtick"><text text-anchor="middle" x="0" y="497" style="font-family: 'Open Sans', verdana, arial, sans-serif; font-size: 16px; fill: rgb(42, 63, 95); fill-opacity: 1; white-space: pre; opacity: 1;" transform="translate(615.83,0)">2</text></g><g class="xtick"><text text-anchor="middle" x="0" y="497" style="font-family: 'Open Sans', verdana, arial, sans-serif; font-size: 16px; fill: rgb(42, 63, 95); fill-opacity: 1; white-space: pre; opacity: 1;" transform="translate(720,0)">3</text></g></g><g class="yaxislayer-above"><g class="ytick"><text text-anchor="end" x="94" y="5.6" transform="translate(0,347)" style="font-family: 'Open Sans', verdana, arial, sans-serif; font-size: 16px; fill: rgb(42, 63, 95); fill-opacity: 1; white-space: pre; opacity: 1;">Applicants</text></g><g class="ytick"><text text-anchor="end" x="94" y="5.6" style="font-family: 'Open Sans', verdana, arial, sans-serif; font-size: 16px; fill: rgb(42, 63, 95); fill-opacity: 1; white-space: pre; opacity: 1;" transform="translate(0,461)">Reviewers</text></g></g><g class="overaxes-above"/></g><g class="subplot xyz2"><g class="overplot"><g class="xyz2" transform="translate(95,100)" clip-path="url(#clipc75cbfxyz2plot)"><g class="scatterlayer2 mlayer"><g class="trace scatter tracea3cab9" style="stroke-miterlimit: 2;"><g class="fills"><g><path class="js-fill" d="M43.09,348.45L55.75,342.73L56.8,342.19L72.62,333.03L73.67,332.36L132.73,295.14L133.79,294.52L156.99,279.76L158.04,279.02L172.81,267.7L173.86,266.82L187.57,254.35L188.63,253.31L203.39,237.35L204.45,236.12L221.32,214.91L222.37,213.51L251.9,175.73L252.96,174.55L263.5,163.8L264.56,162.85L274.05,155.35L275.11,154.64L284.6,149.36L285.65,148.89L295.14,145.73L296.2,145.49L305.69,144.21L306.74,144.16L317.29,144.58L318.34,144.71L329.94,146.99L331,147.27L343.65,151.63L344.71,152.08L356.31,157.81L357.36,158.42L368.97,166L370.02,166.78L382.68,177.14L383.73,178.09L400.6,194.49L401.66,195.57L441.73,238.23L442.79,239.39L470.21,270.49L471.26,271.72L502.9,307.72L503.96,308.81L516.61,320.88L517.67,321.79L529.27,330.77L530.32,331.49L541.92,338.39L542.98,338.93L555.63,344.45L556.69,344.84L569.34,348.89L569.34,361L43.09,361Z" style="fill: rgb(8, 29, 88); fill-opacity: 0.6; stroke-width: 0;"/></g></g><g class="errorbars"/><g class="lines"><path class="js-line" d="M43.09,361L569.34,361" style="vector-effect: none; fill: none; stroke: rgb(0, 0, 0); stroke-opacity: 0; stroke-width: 0px; opacity: 1;"/></g><g class="points"/><g class="text"/></g><g class="trace scatter trace2ed480" style="stroke-miterlimit: 2;"><g class="fills"/><g class="errorbars"/><g class="lines"><path class="js-line" d="M43.09,348.45L55.75,342.73L56.8,342.19L72.62,333.03L73.67,332.36L132.73,295.14L133.79,294.52L156.99,279.76L158.04,279.02L172.81,267.7L173.86,266.82L187.57,254.35L188.63,253.31L203.39,237.35L204.45,236.12L221.32,214.91L222.37,213.51L251.9,175.73L252.96,174.55L263.5,163.8L264.56,162.85L274.05,155.35L275.11,154.64L284.6,149.36L285.65,148.89L295.14,145.73L296.2,145.49L305.69,144.21L306.74,144.16L317.29,144.58L318.34,144.71L329.94,146.99L331,147.27L343.65,151.63L344.71,152.08L356.31,157.81L357.36,158.42L368.97,166L370.02,166.78L382.68,177.14L383.73,178.09L400.6,194.49L401.66,195.57L441.73,238.23L442.79,239.39L470.21,270.49L471.26,271.72L502.9,307.72L503.96,308.81L516.61,320.88L517.67,321.79L529.27,330.77L530.32,331.49L541.92,338.39L542.98,338.93L555.63,344.45L556.69,344.84L569.34,348.89" style="vector-effect: none; fill: none; stroke: rgb(0, 0, 0); stroke-opacity: 1; stroke-width: 1.5px; opacity: 1;"/></g><g class="points"/><g class="text"/></g></g></g></g></g></g><g class="polarlayer"/><g class="smithlayer"/><g class="ternarylayer"/><g class="geolayer"/><g class="funnelarealayer"/><g class="pielayer"/><g class="iciclelayer"/><g class="treemaplayer"/><g class="sunburstlayer"/><g class="glimages"/><defs id="topdefs-c75cbf"><g class="clips"/></defs><g class="layer-above"><g class="imagelayer"/><g class="shapelayer"/></g><g class="infolayer"><g class="g-gtitle"><text class="gtitle" x="40" y="50" text-anchor="start" dy="0em" style="opacity: 1; font-family: 'Open Sans', verdana, arial, sans-serif; font-size: 22px; fill: rgb(42, 63, 95); fill-opacity: 1; white-space: pre;">Observed vs. A-Optimal</text></g><g class="g-xtitle"><text class="xtitle" x="407.5" y="528.3" text-anchor="middle" style="opacity: 1; font-family: 'Open Sans', verdana, arial, sans-serif; font-size: 19px; fill: rgb(42, 63, 95); fill-opacity: 1; white-space: pre;">Z-Score</text></g><g class="g-ytitle"/></g></svg>